<svg width="24" height="24" viewBox="0 0 24 24" fill="none" xmlns="http://www.w3.org/2000/svg" aria-hidden="true" class="StyledInlineSvg-sc-45a1y2-0 jIkpSI fetched-icon"><path d="M12 1C18.0751 1 23 5.92487 23 12C23 18.0751 18.0751 23 12 23C5.92487 23 1 18.0751 1 12C1 5.92487 5.92487 1 12 1ZM9.02051 13C9.11386 15.2562 9.51837 17.2459 10.0996 18.6992C10.4336 19.5343 10.8072 20.1438 11.1699 20.5273C11.5305 20.9085 11.8113 21 12 21C12.1887 21 12.4695 20.9085 12.8301 20.5273C13.1928 20.1438 13.5664 19.5343 13.9004 18.6992C14.4816 17.2459 14.8861 15.2562 14.9795 13H9.02051ZM3.05664 13C3.42734 16.3528 5.63914 19.148 8.65918 20.3564C8.51015 20.0668 8.37071 19.7613 8.24316 19.4424C7.55349 17.7182 7.11374 15.4671 7.01953 13H3.05664ZM16.9805 13C16.8863 15.4671 16.4465 17.7182 15.7568 19.4424C15.6292 19.7614 15.489 20.0667 15.3398 20.3564C18.3603 19.1482 20.5726 16.3531 20.9434 13H16.9805ZM15.3398 3.64258C15.4891 3.93256 15.6291 4.23832 15.7568 4.55762C16.4465 6.28182 16.8863 8.53286 16.9805 11H20.9434C20.5726 7.64678 18.3605 4.85079 15.3398 3.64258ZM12 3C11.8113 3 11.5305 3.09148 11.1699 3.47266C10.8072 3.85623 10.4336 4.46568 10.0996 5.30078C9.51837 6.75413 9.11386 8.74377 9.02051 11H14.9795C14.8861 8.74377 14.4816 6.75413 13.9004 5.30078C13.5664 4.46568 13.1928 3.85623 12.8301 3.47266C12.4695 3.09148 12.1887 3 12 3ZM8.65918 3.64258C5.63897 4.85097 3.42736 7.64709 3.05664 11H7.01953C7.11374 8.53286 7.55349 6.28182 8.24316 4.55762C8.37083 4.23846 8.51 3.93244 8.65918 3.64258Z" fill="var(--usage-color-icon-default)"></path></svg>